<svg width="800" height="550" xmlns="http://www.w3.org/2000/svg" style="background-color: #ffffff; font-family: sans-serif;">
  <text x="400" y="35" text-anchor="middle" font-size="18" font-weight="bold" fill="#2c3e50">Multidimensional Sleep Profile Study (5 Variables)</text>
  
  <line x1="80" y1="480" x2="760" y2="480" stroke="#f0f3f4" stroke-width="1"/><text x="65" y="484" font-size="11" fill="#7f8c8d" text-anchor="end">0</text>
  <line x1="80" y1="308" x2="760" y2="308" stroke="#f0f3f4" stroke-width="1"/><text x="65" y="312" font-size="11" fill="#7f8c8d" text-anchor="end">40</text>
  <line x1="80" y1="136" x2="760" y2="136" stroke="#f0f3f4" stroke-width="1"/><text x="65" y="140" font-size="11" fill="#7f8c8d" text-anchor="end">80</text>
  
  <line x1="80" y1="50" x2="80" y2="480" stroke="#f0f3f4" stroke-width="1"/><text x="80" y="500" font-size="11" fill="#7f8c8d" text-anchor="middle">5 h</text>
  <line x1="250" y1="50" x2="250" y2="480" stroke="#f0f3f4" stroke-width="1"/><text x="250" y="500" font-size="11" fill="#7f8c8d" text-anchor="middle">6 h</text>
  <line x1="420" y1="50" x2="420" y2="480" stroke="#f0f3f4" stroke-width="1"/><text x="420" y="500" font-size="11" fill="#7f8c8d" text-anchor="middle">7 h</text>
  <line x1="590" y1="50" x2="590" y2="480" stroke="#f0f3f4" stroke-width="1"/><text x="590" y="500" font-size="11" fill="#7f8c8d" text-anchor="middle">8 h</text>
  <line x1="760" y1="50" x2="760" y2="480" stroke="#f0f3f4" stroke-width="1"/><text x="760" y="500" font-size="11" fill="#7f8c8d" text-anchor="middle">9 h</text>

  <line x1="80" y1="480" x2="760" y2="480" stroke="#2c3e50" stroke-width="2"/>
  <line x1="80" y1="50" x2="80" y2="480" stroke="#2c3e50" stroke-width="2"/>
  
  <text x="420" y="535" text-anchor="middle" font-size="13" font-weight="bold" fill="#2c3e50">Sleep Duration (Hours)</text>
  <text x="25" y="265" text-anchor="middle" font-size="13" font-weight="bold" fill="#2c3e50" transform="rotate(-90 25,265)">Physical Activity Level (mins/day)</text>

  <circle cx="267" cy="299" r="7.5" fill="#f1c40f" stroke="#ffffff" opacity="0.6"/>
  <circle cx="284" cy="222" r="7.8" fill="#e74c3c" stroke="#ffffff" opacity="0.6"/>
  <circle cx="233" cy="351" r="7.8" fill="#e74c3c" stroke="#ffffff" opacity="0.4"/>
  <circle cx="471" cy="240" r="8.9" fill="#2ecc71" stroke="#ffffff" opacity="0.8"/>
  <circle cx="550" cy="150" r="12.0" fill="#2ecc71" stroke="#ffffff" opacity="0.9"/>
</svg>
